<?xml version="1.0" encoding="UTF-8"?>
<mxfile host="app.diagrams.net" version="15.8.7" type="device">
  <diagram id="AKS-CertManager-LetsEncrypt" name="AKS CertManager LetsEncrypt">
    <mxGraphModel dx="1200" dy="800" grid="1" gridSize="10" guides="1" tooltips="1" connect="1" arrows="1" fold="1" page="1" pageScale="1" pageWidth="827" pageHeight="1169" math="0" shadow="0">
      <root>
        <mxCell id="0"/>
        <mxCell id="1" parent="0"/>
        <!-- Azure DNS Zone -->
        <mxCell id="2" value="Azure DNS Zone\nakms-dev.shop" style="ellipse;whiteSpace=wrap;html=1;fillColor=#dae8fc;strokeColor=#6c8ebf;" vertex="1" parent="1">
          <mxGeometry x="40" y="20" width="160" height="60" as="geometry"/>
        </mxCell>
        <!-- Azure Resource Group -->
        <mxCell id="3" value="Resource Group\naks-demo-rg" style="rounded=1;whiteSpace=wrap;html=1;fillColor=#fff2cc;strokeColor=#d6b656;" vertex="1" parent="1">
          <mxGeometry x="240" y="20" width="180" height="60" as="geometry"/>
        </mxCell>
        <!-- AKS Cluster boundary -->
        <mxCell id="4" value="AKS Cluster\nyour-aks-demo-cluster" style="swimlane;whiteSpace=wrap;html=1;startSize=20;fillColor=#f5f5f5;strokeColor=#999999;" vertex="1" parent="1">
          <mxGeometry x="100" y="120" width="500" height="320" as="geometry"/>
        </mxCell>
        <!-- cert-manager namespace -->
        <mxCell id="5" value="cert-manager\n(namespace)" style="rounded=1;whiteSpace=wrap;html=1;fillColor=#d5e8d4;strokeColor=#82b366;" vertex="1" parent="4">
          <mxGeometry x="40" y="40" width="140" height="50" as="geometry"/>
        </mxCell>
        <!-- cert-manager pod -->
        <mxCell id="6" value="cert-manager pod" style="rounded=1;whiteSpace=wrap;html=1;fillColor=#e1d5e7;strokeColor=#9673a6;" vertex="1" parent="4">
          <mxGeometry x="220" y="40" width="140" height="50" as="geometry"/>
        </mxCell>
        <!-- ClusterIssuer (selfsigned) -->
        <mxCell id="7" value="ClusterIssuer\n(selfsigned)" style="rounded=1;whiteSpace=wrap;html=1;fillColor=#f8cecc;strokeColor=#b85450;" vertex="1" parent="4">
          <mxGeometry x="400" y="40" width="140" height="50" as="geometry"/>
        </mxCell>
        <!-- Certificate (www.akms-dev.shop) -->
        <mxCell id="8" value="Certificate\nwww.akms-dev.shop" style="rounded=1;whiteSpace=wrap;html=1;fillColor=#ffe6cc;strokeColor=#d79b00;" vertex="1" parent="4">
          <mxGeometry x="220" y="120" width="140" height="50" as="geometry"/>
        </mxCell>
        <!-- Secret (www-tls) -->
        <mxCell id="9" value="Secret\nwww-tls" style="rounded=1;whiteSpace=wrap;html=1;fillColor=#fff2cc;strokeColor=#d6b656;" vertex="1" parent="4">
          <mxGeometry x="220" y="200" width="140" height="50" as="geometry"/>
        </mxCell>
        <!-- App Deployment (helloweb) -->
        <mxCell id="10" value="Deployment\nhelloweb" style="rounded=1;whiteSpace=wrap;html=1;fillColor=#e1d5e7;strokeColor=#9673a6;" vertex="1" parent="4">
          <mxGeometry x="400" y="120" width="140" height="50" as="geometry"/>
        </mxCell>
        <!-- Service (LoadBalancer) -->
        <mxCell id="11" value="Service\nType: LoadBalancer\n(azure-dns-label-name)" style="rounded=1;whiteSpace=wrap;html=1;fillColor=#dae8fc;strokeColor=#6c8ebf;" vertex="1" parent="4">
          <mxGeometry x="400" y="200" width="140" height="60" as="geometry"/>
        </mxCell>
        <!-- Let's Encrypt (future) -->
        <mxCell id="12" value="Let's Encrypt\n(future: trusted cert)" style="rounded=1;whiteSpace=wrap;html=1;fillColor=#f8cecc;strokeColor=#b85450;" vertex="1" parent="1">
          <mxGeometry x="40" y="480" width="180" height="60" as="geometry"/>
        </mxCell>
        <!-- Edges -->
        <mxCell id="13" style="edgeStyle=orthogonalEdgeStyle;rounded=0;orthogonalLoop=1;jettySize=auto;html=1;strokeColor=#6c8ebf;" edge="1" parent="1" source="2" target="3">
          <mxGeometry relative="1" as="geometry"/>
        </mxCell>
        <mxCell id="14" style="edgeStyle=orthogonalEdgeStyle;rounded=0;orthogonalLoop=1;jettySize=auto;html=1;strokeColor=#d6b656;" edge="1" parent="1" source="3" target="4">
          <mxGeometry relative="1" as="geometry"/>
        </mxCell>
        <mxCell id="15" style="edgeStyle=orthogonalEdgeStyle;rounded=0;orthogonalLoop=1;jettySize=auto;html=1;strokeColor=#82b366;" edge="1" parent="4" source="5" target="6">
          <mxGeometry relative="1" as="geometry"/>
        </mxCell>
        <mxCell id="16" style="edgeStyle=orthogonalEdgeStyle;rounded=0;orthogonalLoop=1;jettySize=auto;html=1;strokeColor=#b85450;" edge="1" parent="4" source="6" target="7">
          <mxGeometry relative="1" as="geometry"/>
        </mxCell>
        <mxCell id="17" style="edgeStyle=orthogonalEdgeStyle;rounded=0;orthogonalLoop=1;jettySize=auto;html=1;strokeColor=#d79b00;" edge="1" parent="4" source="7" target="8">
          <mxGeometry relative="1" as="geometry"/>
        </mxCell>
        <mxCell id="18" style="edgeStyle=orthogonalEdgeStyle;rounded=0;orthogonalLoop=1;jettySize=auto;html=1;strokeColor=#d6b656;" edge="1" parent="4" source="8" target="9">
          <mxGeometry relative="1" as="geometry"/>
        </mxCell>
        <mxCell id="19" style="edgeStyle=orthogonalEdgeStyle;rounded=0;orthogonalLoop=1;jettySize=auto;html=1;strokeColor=#9673a6;" edge="1" parent="4" source="9" target="10">
          <mxGeometry relative="1" as="geometry"/>
        </mxCell>
        <mxCell id="20" style="edgeStyle=orthogonalEdgeStyle;rounded=0;orthogonalLoop=1;jettySize=auto;html=1;strokeColor=#6c8ebf;" edge="1" parent="4" source="10" target="11">
          <mxGeometry relative="1" as="geometry"/>
        </mxCell>
        <mxCell id="21" style="edgeStyle=orthogonalEdgeStyle;rounded=0;orthogonalLoop=1;jettySize=auto;html=1;strokeColor=#b85450;dashed=1;" edge="1" parent="1" source="12" target="6">
          <mxGeometry relative="1" as="geometry"/>
        </mxCell>
      </root>
    </mxGraphModel>
  </diagram>
</mxfile>
